<svg width="122" height="186" viewBox="0 0 122 186" fill="none" xmlns="http://www.w3.org/2000/svg">
<circle cx="61" cy="105" r="61" fill="#485C52"/>
<path d="M72.9034 94.5852L62.5142 97.5256C61.8608 95.794 60.897 94.1115 59.6229 92.478C58.3814 90.8118 56.6825 89.4396 54.5263 88.3615C52.37 87.2834 49.6094 86.7443 46.2443 86.7443C41.6378 86.7443 37.799 87.8061 34.728 89.9297C31.6896 92.0206 30.1705 94.6832 30.1705 97.9176C30.1705 100.793 31.2159 103.063 33.3068 104.729C35.3977 106.396 38.6648 107.784 43.108 108.895L54.2812 111.639C61.0114 113.273 66.0263 115.772 69.326 119.137C72.6257 122.469 74.2756 126.766 74.2756 132.026C74.2756 136.338 73.0341 140.193 70.5511 143.591C68.1009 146.989 64.6705 149.668 60.2599 151.628C55.8494 153.588 50.7202 154.568 44.8722 154.568C37.1946 154.568 30.8402 152.902 25.8089 149.57C20.7777 146.237 17.5923 141.369 16.2528 134.966L27.2301 132.222C28.2756 136.273 30.2521 139.311 33.1598 141.337C36.1001 143.362 39.9389 144.375 44.6761 144.375C50.0668 144.375 54.3466 143.232 57.5156 140.945C60.7173 138.625 62.3182 135.848 62.3182 132.614C62.3182 130 61.4034 127.811 59.5739 126.047C57.7443 124.25 54.9347 122.911 51.1449 122.028L38.5994 119.088C31.706 117.455 26.642 114.923 23.4077 111.492C20.206 108.029 18.6051 103.7 18.6051 98.5057C18.6051 94.2585 19.7976 90.5014 22.1825 87.2344C24.6001 83.9673 27.8835 81.4027 32.0327 79.5405C36.2145 77.6783 40.9517 76.7472 46.2443 76.7472C53.6932 76.7472 59.5412 78.3807 63.7884 81.6477C68.0682 84.9148 71.1065 89.2273 72.9034 94.5852Z" fill="#69C195"/>
<path d="M103.903 75.5852L93.5142 78.5256C92.8608 76.794 91.897 75.1115 90.6229 73.478C89.3814 71.8118 87.6825 70.4396 85.5263 69.3615C83.37 68.2834 80.6094 67.7443 77.2443 67.7443C72.6378 67.7443 68.799 68.8061 65.728 70.9297C62.6896 73.0206 61.1705 75.6832 61.1705 78.9176C61.1705 81.7926 62.2159 84.0632 64.3068 85.7294C66.3977 87.3956 69.6648 88.7841 74.108 89.8949L85.2812 92.6392C92.0114 94.2727 97.0263 96.772 100.326 100.137C103.626 103.469 105.276 107.766 105.276 113.026C105.276 117.338 104.034 121.193 101.551 124.591C99.1009 127.989 95.6705 130.668 91.2599 132.628C86.8494 134.588 81.7202 135.568 75.8722 135.568C68.1946 135.568 61.8402 133.902 56.8089 130.57C51.7777 127.237 48.5923 122.369 47.2528 115.966L58.2301 113.222C59.2756 117.273 61.2521 120.311 64.1598 122.337C67.1001 124.362 70.9389 125.375 75.6761 125.375C81.0668 125.375 85.3466 124.232 88.5156 121.945C91.7173 119.625 93.3182 116.848 93.3182 113.614C93.3182 111 92.4034 108.811 90.5739 107.047C88.7443 105.25 85.9347 103.911 82.1449 103.028L69.5994 100.088C62.706 98.4545 57.642 95.9226 54.4077 92.4922C51.206 89.0291 49.6051 84.7003 49.6051 79.5057C49.6051 75.2585 50.7976 71.5014 53.1825 68.2344C55.6001 64.9673 58.8835 62.4027 63.0327 60.5405C67.2145 58.6783 71.9517 57.7472 77.2443 57.7472C84.6932 57.7472 90.5412 59.3807 94.7884 62.6477C99.0682 65.9148 102.107 70.2273 103.903 75.5852Z" fill="#69C195"/>
</svg>
