<svg width="104" height="186" viewBox="0 0 104 186" fill="none" xmlns="http://www.w3.org/2000/svg">
<path d="M63.9034 94.5852L53.5142 97.5256C52.8608 95.794 51.897 94.1115 50.6229 92.478C49.3814 90.8118 47.6825 89.4396 45.5263 88.3615C43.37 87.2834 40.6094 86.7443 37.2443 86.7443C32.6378 86.7443 28.799 87.8061 25.728 89.9297C22.6896 92.0206 21.1705 94.6832 21.1705 97.9176C21.1705 100.793 22.2159 103.063 24.3068 104.729C26.3977 106.396 29.6648 107.784 34.108 108.895L45.2812 111.639C52.0114 113.273 57.0263 115.772 60.326 119.137C63.6257 122.469 65.2756 126.766 65.2756 132.026C65.2756 136.338 64.0341 140.193 61.5511 143.591C59.1009 146.989 55.6705 149.668 51.2599 151.628C46.8494 153.588 41.7202 154.568 35.8722 154.568C28.1946 154.568 21.8402 152.902 16.8089 149.57C11.7777 146.237 8.59233 141.369 7.25284 134.966L18.2301 132.222C19.2756 136.273 21.2521 139.311 24.1598 141.337C27.1001 143.362 30.9389 144.375 35.6761 144.375C41.0668 144.375 45.3466 143.232 48.5156 140.945C51.7173 138.625 53.3182 135.848 53.3182 132.614C53.3182 130 52.4034 127.811 50.5739 126.047C48.7443 124.25 45.9347 122.911 42.1449 122.028L29.5994 119.088C22.706 117.455 17.642 114.923 14.4077 111.492C11.206 108.029 9.60511 103.7 9.60511 98.5057C9.60511 94.2585 10.7976 90.5014 13.1825 87.2344C15.6001 83.9673 18.8835 81.4027 23.0327 79.5405C27.2145 77.6783 31.9517 76.7472 37.2443 76.7472C44.6932 76.7472 50.5412 78.3807 54.7884 81.6477C59.0682 84.9148 62.1065 89.2273 63.9034 94.5852Z" fill="#69C195"/>
<path d="M94.9034 75.5852L84.5142 78.5256C83.8608 76.794 82.897 75.1115 81.6229 73.478C80.3814 71.8118 78.6825 70.4396 76.5263 69.3615C74.37 68.2834 71.6094 67.7443 68.2443 67.7443C63.6378 67.7443 59.799 68.8061 56.728 70.9297C53.6896 73.0206 52.1705 75.6832 52.1705 78.9176C52.1705 81.7926 53.2159 84.0632 55.3068 85.7294C57.3977 87.3956 60.6648 88.7841 65.108 89.8949L76.2812 92.6392C83.0114 94.2727 88.0263 96.772 91.326 100.137C94.6257 103.469 96.2756 107.766 96.2756 113.026C96.2756 117.338 95.0341 121.193 92.5511 124.591C90.1009 127.989 86.6705 130.668 82.2599 132.628C77.8494 134.588 72.7202 135.568 66.8722 135.568C59.1946 135.568 52.8402 133.902 47.8089 130.57C42.7777 127.237 39.5923 122.369 38.2528 115.966L49.2301 113.222C50.2756 117.273 52.2521 120.311 55.1598 122.337C58.1001 124.362 61.9389 125.375 66.6761 125.375C72.0668 125.375 76.3466 124.232 79.5156 121.945C82.7173 119.625 84.3182 116.848 84.3182 113.614C84.3182 111 83.4034 108.811 81.5739 107.047C79.7443 105.25 76.9347 103.911 73.1449 103.028L60.5994 100.088C53.706 98.4545 48.642 95.9226 45.4077 92.4922C42.206 89.0291 40.6051 84.7003 40.6051 79.5057C40.6051 75.2585 41.7976 71.5014 44.1825 68.2344C46.6001 64.9673 49.8835 62.4027 54.0327 60.5405C58.2145 58.6783 62.9517 57.7472 68.2443 57.7472C75.6932 57.7472 81.5412 59.3807 85.7884 62.6477C90.0682 65.9148 93.1065 70.2273 94.9034 75.5852Z" fill="#69C195"/>
</svg>
